<?xml version="1.0" encoding="UTF-8"?>
<!DOCTYPE svg PUBLIC "-//W3C//DTD SVG 1.1//EN" "http://www.w3.org/Graphics/SVG/1.1/DTD/svg11.dtd">
<svg xmlns="http://www.w3.org/2000/svg" version="1.1" width="64px" height="64px" style="shape-rendering:geometricPrecision; text-rendering:geometricPrecision; image-rendering:optimizeQuality; fill-rule:evenodd; clip-rule:evenodd" xmlns:xlink="http://www.w3.org/1999/xlink">
<g><path style="opacity:0.802" fill="#000000" d="M 16.5,1.5 C 29.1667,1.5 41.8333,1.5 54.5,1.5C 54.5,2.83333 54.5,4.16667 54.5,5.5C 55.8333,5.5 57.1667,5.5 58.5,5.5C 58.6665,14.8393 58.4998,24.1726 58,33.5C 50.3904,34.013 42.8904,35.013 35.5,36.5C 28.1096,35.013 20.6096,34.013 13,33.5C 12.5002,24.1726 12.3335,14.8393 12.5,5.5C 13.8333,5.5 15.1667,5.5 16.5,5.5C 16.5,4.16667 16.5,2.83333 16.5,1.5 Z M 18.5,4.5 C 23.8333,4.5 29.1667,4.5 34.5,4.5C 34.5,12.1667 34.5,19.8333 34.5,27.5C 29.1667,27.5 23.8333,27.5 18.5,27.5C 18.5,19.8333 18.5,12.1667 18.5,4.5 Z M 36.5,4.5 C 41.8333,4.5 47.1667,4.5 52.5,4.5C 52.5,12.1667 52.5,19.8333 52.5,27.5C 47.1667,27.5 41.8333,27.5 36.5,27.5C 36.5,19.8333 36.5,12.1667 36.5,4.5 Z M 14.5,8.5 C 16.3019,15.0952 17.1353,22.0952 17,29.5C 22.7412,30.4749 28.5746,30.8082 34.5,30.5C 34.719,31.675 34.3857,32.675 33.5,33.5C 27.3865,31.599 21.0532,30.9323 14.5,31.5C 14.5,23.8333 14.5,16.1667 14.5,8.5 Z M 54.5,8.5 C 56.4651,15.7605 57.1318,23.4271 56.5,31.5C 49.9468,30.9323 43.6135,31.599 37.5,33.5C 36.6143,32.675 36.281,31.675 36.5,30.5C 42.4254,30.8082 48.2588,30.4749 54,29.5C 54.4996,22.5079 54.6663,15.5079 54.5,8.5 Z"/></g>
<g><path style="opacity:0.707" fill="#000000" d="M 20.5,5.5 C 21.6491,5.79106 22.3158,6.62439 22.5,8C 22.1667,8.83333 21.8333,9.66667 21.5,10.5C 20.5481,8.95467 20.2148,7.28801 20.5,5.5 Z"/></g>
<g><path style="opacity:0.707" fill="#000000" d="M 25.5,5.5 C 26.6491,5.79106 27.3158,6.62439 27.5,8C 27.1667,8.83333 26.8333,9.66667 26.5,10.5C 25.5481,8.95467 25.2148,7.28801 25.5,5.5 Z"/></g>
<g><path style="opacity:0.707" fill="#000000" d="M 30.5,5.5 C 31.6491,5.79106 32.3158,6.62439 32.5,8C 32.1667,8.83333 31.8333,9.66667 31.5,10.5C 30.5481,8.95467 30.2148,7.28801 30.5,5.5 Z"/></g>
<g><path style="opacity:0.707" fill="#000000" d="M 38.5,5.5 C 39.6491,5.79106 40.3158,6.62439 40.5,8C 40.1667,8.83333 39.8333,9.66667 39.5,10.5C 38.5481,8.95467 38.2148,7.28801 38.5,5.5 Z"/></g>
<g><path style="opacity:0.707" fill="#000000" d="M 43.5,5.5 C 44.6491,5.79106 45.3158,6.62439 45.5,8C 45.1667,8.83333 44.8333,9.66667 44.5,10.5C 43.5481,8.95467 43.2148,7.28801 43.5,5.5 Z"/></g>
<g><path style="opacity:0.707" fill="#000000" d="M 48.5,5.5 C 49.6491,5.79106 50.3158,6.62439 50.5,8C 50.1667,8.83333 49.8333,9.66667 49.5,10.5C 48.5481,8.95467 48.2148,7.28801 48.5,5.5 Z"/></g>
<g><path style="opacity:0.665" fill="#000000" d="M 37.5,63.5 C 34.8333,63.5 32.1667,63.5 29.5,63.5C 25.0541,60.7742 20.3874,58.2742 15.5,56C 11.7605,55.6806 8.09387,56.1806 4.5,57.5C 3.55805,57.3918 2.72472,57.0585 2,56.5C 1.16973,50.4724 1.33639,44.4724 2.5,38.5C 13.0798,34.9006 23.0798,36.0673 32.5,42C 36.6967,41.8005 40.3633,42.9671 43.5,45.5C 49.202,42.9386 55.0353,42.2719 61,43.5C 61.9782,46.6693 61.4782,49.5027 59.5,52C 51.9477,55.6076 44.6144,59.441 37.5,63.5 Z M 11.5,39.5 C 18.7953,38.9865 25.4619,40.8198 31.5,45C 33.8333,45.3333 36.1667,45.6667 38.5,46C 39.7908,48.0902 39.1242,49.4236 36.5,50C 32.0957,50.2576 27.7624,49.7576 23.5,48.5C 23.5,49.5 23.5,50.5 23.5,51.5C 28.0399,53.1508 32.7065,53.6508 37.5,53C 43.5871,48.2193 50.5871,45.7193 58.5,45.5C 58.5479,48.2919 57.2146,50.1253 54.5,51C 47.7167,54.7264 40.7167,57.8931 33.5,60.5C 27.6191,58.5612 21.9524,56.0612 16.5,53C 14.2305,52.2419 12.0639,52.4086 10,53.5C 8.84686,51.503 7.34686,51.1696 5.5,52.5C 6.91893,54.1266 6.5856,54.6266 4.5,54C 3.37052,49.9215 3.20385,45.7548 4,41.5C 6.60731,40.8767 9.10731,40.21 11.5,39.5 Z"/></g>
<g><path style="opacity:0.883" fill="#000000" d="M 5.5,41.5 C 6.97782,41.238 8.31116,41.5713 9.5,42.5C 8.83333,42.8333 8.16667,43.1667 7.5,43.5C 6.28665,43.2528 5.61998,42.5862 5.5,41.5 Z"/></g>
<g><path style="opacity:0.883" fill="#000000" d="M 5.5,46.5 C 6.97782,46.238 8.31116,46.5713 9.5,47.5C 8.83333,47.8333 8.16667,48.1667 7.5,48.5C 6.28665,48.2528 5.61998,47.5862 5.5,46.5 Z"/></g>
</svg>
