<?xml version="1.0" encoding="utf-8"?>
<!-- Svg Vector Icons : http://www.onlinewebfonts.com/icon -->
<!DOCTYPE svg PUBLIC "-//W3C//DTD SVG 1.1//EN" "http://www.w3.org/Graphics/SVG/1.1/DTD/svg11.dtd">
<svg version="1.1" xmlns="http://www.w3.org/2000/svg" xmlns:xlink="http://www.w3.org/1999/xlink" x="0px" y="0px" viewBox="0 0 256 256" enable-background="new 0 0 256 256" xml:space="preserve">
<metadata> Svg Vector Icons : http://www.onlinewebfonts.com/icon </metadata>
<g><g><path stroke-width="2" fill-opacity="0" stroke="#000000"  d="M41.1,85.9l6.8-2.6l49.4,129.2l-6.8,2.6L41.1,85.9z"/><path stroke-width="2" fill-opacity="0" stroke="#000000"  d="M94.2,222.4l6.8-2.6l9.2,23.6l-6.8,2.6L94.2,222.4z"/><path stroke-width="2" fill-opacity="0" stroke="#000000"  d="M148.9,133.7c-6.7,4.6-7.6,12.4-9.2,14.6c-2.7,3.6-21.5,3.6-23.8,0c-1.1-1.7-2.5-11.8-7.3-14.6c-4.9-2.7-34.8,7.3-34.8,7.3l25.6,60c0,0,8.9,36.4,27.5,36.4c18.6,0,25.2-14.1,42.1-36.4c16.9-22.3,43.5-17,49.4-32.8C224.4,152.5,155.6,129.2,148.9,133.7z M128.7,195.6c-2.1-11.4-10.8-35.5-12.8-41.8c5.8,2.3,18.1,2.6,23.8,0C138.8,157.7,130,184.2,128.7,195.6z"/><path stroke-width="2" fill-opacity="0" stroke="#000000"  d="M59.2,148.3l18.3,43.7c0,0-40-16.2-40.3-25.5C36.9,157.2,59.2,148.3,59.2,148.3z"/><path stroke-width="2" fill-opacity="0" stroke="#000000"  d="M172.7,75.5c-2.6-6.2-7.3-1.8-7.3-1.8s-2.6-23.3-12.8-23.6c-10.3-0.4-12.8,10.2-23.8,10.9c-11,0.7-17.6-12.7-27.5-10.9c-9.9,1.8-11,23.6-11,23.6S84.1,69,83,77.3c-1.1,8.4,9.2,20,9.2,20s2.6,36.4,34.8,36.4c32.2,0,36.6-36.4,36.6-36.4S175.2,81.7,172.7,75.5z M161.7,84.6c0,5-4.1,9.1-9.1,9.1h-11c-4.4,0-7.9-3.2-8.8-7.3h-9.9c-0.9,4.1-4.4,7.3-8.8,7.3h-11c-5.1,0-9.2-4.1-9.2-9.1v-1.8c0-5,4.1-9.1,9.2-9.1h11c5.1,0,9.2,4.1,9.2,9.1h9.2c0-5,4.1-9.1,9.2-9.1h11c5.1,0,9.2,4.1,9.2,9.1L161.7,84.6L161.7,84.6z"/><path stroke-width="2" fill-opacity="0" stroke="#000000"  d="M85.8,123.7c-16.4-13.5-23.2-58.2-11.7-81.2c2.4-4.7,13.4-28.7,37-30.9c23.6-2.2,24.5-2.5,40.9,1.9s27,27.1,29.2,34.8c2.2,7.7,5.3,27.1,3.9,34.8c-1.4,7.7-7.8,27.1-7.8,27.1s-6.4,14.4-9.7,15.5c-2.2,3.3-5.8-3.9-5.8-3.9l2-9.7l3.9-15.1c0,0,4.2-2.9,5.8-6.2c1.7-3.3,3.9-9.4,3.9-11.6s0.8-6.9,0-9.7c-0.8-2.7-7.8-1.9-7.8-1.9s-5.3-22.9-15.6-23.2C143.7,44.1,132.8,56,126.7,56c-6.1,0-16.4-11.3-27.3-11.6c-10.8-0.3-12.5,15.2-13.6,23.2c-9-1.9-15.5,9.9,0,29.4c3.6,7.2-0.6,9.8,7.8,22.8C89.7,124.8,88.9,127,85.8,123.7z"/></g></g>
</svg>